<svg width="21" height="20" viewBox="0 0 21 20" fill="none" xmlns="http://www.w3.org/2000/svg">
    <path
        d="M14.7085 16.9C13.8918 17.6917 13.0002 17.5667 12.1418 17.1917C11.2335 16.8083 10.4002 16.7917 9.44184 17.1917C8.24184 17.7083 7.60851 17.5583 6.89184 16.9C2.82518 12.7083 3.42518 6.325 8.04184 6.09167C9.16684 6.15 9.95018 6.70833 10.6085 6.75833C11.5918 6.55833 12.5335 5.98333 13.5835 6.05833C14.8418 6.15833 15.7918 6.65833 16.4168 7.55833C13.8168 9.11667 14.4335 12.5417 16.8168 13.5C16.3418 14.75 15.7252 15.9917 14.7002 16.9083L14.7085 16.9ZM10.5252 6.04167C10.4002 4.18333 11.9085 2.65 13.6418 2.5C13.8835 4.65 11.6918 6.25 10.5252 6.04167Z"
        fill="currentColor" />
</svg>
    