<svg width="21" height="20" viewBox="0 0 21 20" fill="none" xmlns="http://www.w3.org/2000/svg">
    <path
        d="M18.2552 10.4425L12.6302 16.0675C12.5129 16.1848 12.3538 16.2507 12.188 16.2507C12.0221 16.2507 11.8631 16.1848 11.7458 16.0675C11.6285 15.9503 11.5626 15.7912 11.5626 15.6253C11.5626 15.4595 11.6285 15.3004 11.7458 15.1832L16.3044 10.6253H4.06299C3.89723 10.6253 3.73826 10.5595 3.62105 10.4423C3.50384 10.3251 3.43799 10.1661 3.43799 10.0003C3.43799 9.83459 3.50384 9.67562 3.62105 9.55841C3.73826 9.4412 3.89723 9.37535 4.06299 9.37535H16.3044L11.7458 4.81753C11.6285 4.70026 11.5626 4.5412 11.5626 4.37535C11.5626 4.2095 11.6285 4.05044 11.7458 3.93316C11.8631 3.81588 12.0221 3.75 12.188 3.75C12.3538 3.75 12.5129 3.81588 12.6302 3.93316L18.2552 9.55816C18.3133 9.61621 18.3594 9.68514 18.3908 9.76101C18.4223 9.83688 18.4385 9.91821 18.4385 10.0003C18.4385 10.0825 18.4223 10.1638 18.3908 10.2397C18.3594 10.3156 18.3133 10.3845 18.2552 10.4425Z"
        fill="currentColor" />
</svg>