<svg width="131" height="131" viewBox="0 0 131 131" fill="none" xmlns="http://www.w3.org/2000/svg">
<path d="M110.344 55.9178C110.348 73.0931 110.354 90.2078 110.357 107.323C110.357 109.103 109.594 110.481 108.071 111.391C106.271 112.466 104.523 113.628 102.66 114.6C101.877 115.008 101.13 115.137 100.288 114.832C96.9179 113.609 93.5438 112.396 90.1652 111.196C84.2048 109.079 78.2171 107.037 72.2825 104.85C62.6615 101.305 52.9879 97.9064 43.3632 94.3722C37.6524 92.2752 31.9226 90.2303 26.2039 88.1548C25.0979 87.7534 24.018 87.2746 23.2251 86.3683C22.3825 85.4051 22.0071 84.2331 22.0064 82.968C21.9976 68.1339 22.0002 53.2998 22.0009 38.4657C22.0011 33.6825 22.0029 28.8992 22.0069 24.1159C22.0083 22.5256 22.5803 21.2804 24.0521 20.4865C25.7379 19.5771 27.4062 18.6293 29.0354 17.6227C30.2222 16.8893 31.4006 16.8326 32.669 17.3013C36.5815 18.7471 40.4911 20.2016 44.4146 21.6172C52.8676 24.667 61.3573 27.6176 69.7787 30.7518C79.1653 34.2453 88.6093 37.5779 98.0151 41.0167C100.872 42.0614 103.73 43.106 106.609 44.0895C108.33 44.6774 109.338 45.88 110.025 47.3911C110.223 47.8248 110.366 48.2971 110.365 48.7735C110.361 51.1347 110.352 53.496 110.344 55.9178ZM23.7791 59.4902C23.7689 67.0585 23.7574 74.6268 23.752 82.1951C23.7516 82.6373 23.7515 83.0893 23.8367 83.5198C24.1403 85.0537 25.2132 85.8764 26.5963 86.3738C30.9372 87.9352 35.2846 89.4791 39.6229 91.0479C45.7428 93.2609 51.8573 95.4887 57.9732 97.7128C63.237 99.627 68.4913 101.568 73.7646 103.455C80.9341 106.022 88.1189 108.547 95.2943 111.097C97.0976 111.738 98.8532 112.511 100.687 113.067C101.608 113.346 102.248 112.887 102.312 111.94C102.327 111.719 102.326 111.496 102.329 111.274C102.369 107.804 102.374 104.333 102.385 100.863C102.438 84.4351 102.408 68.0066 102.418 51.5782C102.418 50.8233 102.038 50.3732 101.419 50.0667C101.131 49.9242 100.822 49.8225 100.519 49.7119C92.476 46.7775 84.4371 43.8322 76.3881 40.9147C69.3433 38.3611 62.2873 35.8379 55.2356 33.3031C48.2222 30.782 41.2093 28.2598 34.1936 25.7449C31.3115 24.7117 28.4247 23.6912 25.5357 22.6772C24.8347 22.4312 24.2764 22.6369 23.988 23.1978C23.8169 23.5305 23.7796 23.8932 23.8098 24.2583C23.9181 25.5675 23.8998 26.8795 23.9001 28.1906C23.9025 38.5836 23.9109 48.9766 23.7791 59.4902ZM87.9694 43.1944C92.6094 44.8792 97.2485 46.5665 101.89 48.2473C103.088 48.6813 104.189 50.2287 104.189 51.5077C104.188 71.4048 104.188 91.3019 104.19 111.199C104.19 111.327 104.118 111.484 104.33 111.601C103 112.5 102.495 109.669 103.5 109C104.254 108.499 103.5 106.925 103.5 106C103.492 86.4863 102.398 68.2871 102.418 48.7735C102 48.5 105.5 46 105.5 45.6227C105.012 45.0403 106.665 46.038 105.966 45.789C101.793 44.3011 97.6161 42.8212 93.455 41.2985C85.8502 38.5157 78.2179 35.8099 70.626 32.9902C61.5071 29.6032 52.3247 26.3874 43.1733 23.0878C39.44 21.7417 35.7118 20.3812 31.9912 19.0005C31.2681 18.7321 30.6426 18.7572 29.9861 19.1702C29.0647 19.7499 28.1101 20.2765 27.1721 20.8301C27.025 20.9169 26.8424 20.9769 26.7886 21.222C47.2428 28.3005 67.5274 35.8267 87.9694 43.1944Z" class="fill-fgs2"/>
<path d="M50.8907 55.9175C50.8882 60.3152 50.9634 64.6541 50.8618 68.9889C50.7551 73.5475 50.7742 78.1051 50.8116 82.6619C50.8302 84.9191 50.8882 87.1778 50.8969 89.4363C50.9 90.2618 50.6285 90.6469 50.0577 90.6728C49.4838 90.6988 49.0363 90.1769 49.0145 89.4299C48.9992 88.9058 49.0089 88.381 49.0088 87.8565C49.0081 71.2947 49.0076 54.7329 49.0072 38.1711C49.0072 37.7885 49.0123 37.4112 49.1128 37.0324C49.2503 36.514 49.6199 36.3655 50.0722 36.4097C50.531 36.4545 50.8698 36.6973 50.8896 37.2175C50.8988 37.4592 50.8888 37.7016 50.8888 37.9436C50.8893 43.9147 50.8899 49.8858 50.8907 55.9175Z" class="fill-fgs2"/>
<path d="M75.5275 86.0713C75.5275 73.0999 75.5275 60.189 75.5275 47.2781C75.5276 47.0159 75.5327 46.7535 75.5268 46.4914C75.5176 46.0882 75.5406 45.6893 76.0387 45.6005C76.5497 45.5095 76.9489 45.694 77.1757 46.1858C77.2883 46.4299 77.3083 46.687 77.3083 46.9523C77.3063 64.2811 77.3056 81.6099 77.311 98.9387C77.3111 99.3322 77.2173 99.6506 76.886 99.8807C76.3447 100.257 75.71 100.025 75.5757 99.3823C75.5268 99.1488 75.5378 98.9008 75.5375 98.6594C75.5327 94.4836 75.5304 90.3077 75.5275 86.0713Z" class="fill-fgs2"/>
<path d="M43.8287 40.6839C39.2902 39.0594 34.7946 37.4546 30.3026 35.8398C29.6973 35.6222 29.0764 35.4282 28.5325 35.0693C27.9028 34.654 27.5475 34.0976 27.5651 33.3057C27.5911 32.1358 27.5703 30.9649 27.5715 29.7945C27.5727 28.6308 28.2293 28.193 29.3512 28.6183C31.2544 29.3397 33.1507 30.0791 35.0566 30.7931C38.2827 32.0017 41.5538 33.0877 44.7515 34.3743C45.5712 34.7042 45.6939 34.8519 45.7041 35.749C45.7198 37.1186 45.6215 38.4884 45.7835 39.8582C45.8847 40.7141 45.1104 41.2373 44.3124 40.903C44.1637 40.8407 44.0192 40.7682 43.8287 40.6839ZM43.1037 35.6662C38.5644 33.9853 34.025 32.3044 29.3519 30.5739C29.3519 31.2669 29.3522 31.8217 29.3518 32.3765C29.351 33.448 29.3387 33.4809 30.3564 33.8546C34.5526 35.3954 38.698 37.073 42.926 38.5275C43.2148 38.6268 43.5002 38.8034 43.7992 38.7505C43.7992 37.9891 43.7672 37.2653 43.8102 36.5461C43.8397 36.053 43.6786 35.7788 43.1037 35.6662Z" class="fill-fgs2"/>
<path d="M72.2036 46.1091C72.2038 47.1981 72.2071 48.2267 72.2068 49.2553C72.2064 50.4077 71.7391 50.7741 70.6411 50.399C66.279 48.9087 61.9537 47.3152 57.634 45.7066C56.9926 45.4677 56.3433 45.2503 55.6986 45.0204C54.6544 44.6479 54.2151 44.0329 54.2143 42.9434C54.2134 41.7331 54.2113 40.5228 54.215 39.3126C54.2183 38.2171 54.7985 37.8268 55.8248 38.205C59.9435 39.7232 64.0646 41.235 68.1841 42.751C69.2613 43.1474 70.3268 43.5782 71.4154 43.9401C72.0338 44.1457 72.3117 44.4889 72.2264 45.1419C72.1874 45.44 72.2102 45.7462 72.2036 46.1091ZM64.95 46.4771C66.7206 47.1259 68.4913 47.7746 70.3255 48.4466C70.3255 47.6067 70.2892 46.8852 70.3374 46.1693C70.3733 45.6365 70.1872 45.3795 69.6856 45.1972C65.3891 43.6352 61.1021 42.0474 56.8094 40.4749C56.5408 40.3765 56.2738 40.2102 55.9935 40.2695C55.9935 40.9499 56.0436 41.5957 55.9802 42.2302C55.9086 42.9472 56.2153 43.2791 56.8614 43.5102C59.5361 44.4666 62.1968 45.4622 64.95 46.4771Z" class="fill-fgs2"/>
<path d="M82.8436 48.0116C86.7119 49.4136 90.5317 50.8084 94.3529 52.199C95.5065 52.6188 96.6592 53.0424 97.8225 53.4336C98.2992 53.5939 98.4983 53.8839 98.5008 54.3704C98.5087 55.862 98.5413 57.3535 98.542 58.845C98.5425 59.7628 97.8724 60.1882 96.8896 59.877C95.0476 59.2938 93.2356 58.6238 91.4216 57.9584C88.2856 56.8079 85.1361 55.6941 81.991 54.5685C81.094 54.2475 80.6329 53.5928 80.6184 52.5129C80.6008 51.2024 80.6076 49.8916 80.6165 48.5809C80.6206 47.9625 81.1458 47.5507 81.7559 47.6888C82.1081 47.7686 82.4495 47.8965 82.8436 48.0116ZM93.959 53.9533C90.1076 52.5609 86.2563 51.1685 82.2721 49.7281C82.2721 50.5439 82.3134 51.187 82.2611 51.8224C82.2031 52.527 82.4879 52.8608 83.1507 53.094C87.1796 54.5112 91.192 55.9754 95.2162 57.4065C95.7167 57.5845 96.1922 57.8698 96.7356 57.8976C96.9063 57.6471 96.8258 57.3985 96.8377 57.1639C96.8643 56.6404 96.637 56.1165 96.7793 55.6005C96.9172 55.1005 96.6987 54.9159 96.2669 54.7777C95.5192 54.5383 94.7853 54.2558 93.959 53.9533Z" class="fill-fgs2"/>
<path d="M35.3898 45.3295C36.3219 45.6712 37.2103 45.9934 38.0958 46.3236C38.4946 46.4724 38.7956 46.7037 38.8292 47.1821C38.8791 47.8923 38.5241 48.2649 37.8214 48.1529C37.4686 48.0967 37.1201 47.9728 36.7876 47.8359C34.2583 46.7941 31.6603 45.9377 29.1006 44.9782C28.7319 44.84 28.416 44.6438 28.1881 44.3163C28.0023 44.0494 27.9236 43.77 28.0946 43.47C28.2656 43.17 28.5138 42.9976 28.8785 43C29.1304 43.0017 29.3476 43.0984 29.5735 43.182C31.497 43.8933 33.4211 44.603 35.3898 45.3295Z" class="fill-fgs2"/>
<path d="M61.3898 53.3295C62.3219 53.6712 63.2103 53.9934 64.0958 54.3236C64.4946 54.4724 64.7956 54.7037 64.8292 55.1821C64.8791 55.8923 64.5241 56.2649 63.8214 56.1529C63.4686 56.0967 63.1201 55.9728 62.7876 55.8359C60.2583 54.7941 57.6603 53.9377 55.1006 52.9782C54.7319 52.84 54.416 52.6438 54.1881 52.3163C54.0023 52.0494 53.9236 51.77 54.0946 51.47C54.2656 51.17 54.5138 50.9976 54.8785 51C55.1304 51.0017 55.3476 51.0984 55.5735 51.182C57.497 51.8933 59.4211 52.603 61.3898 53.3295Z" class="fill-fgs2"/>
<path d="M88.3898 62.3295C89.3219 62.6712 90.2103 62.9934 91.0958 63.3236C91.4946 63.4724 91.7956 63.7037 91.8292 64.1821C91.8791 64.8923 91.5241 65.2649 90.8214 65.1529C90.4686 65.0967 90.1201 64.9728 89.7876 64.8359C87.2583 63.7941 84.6603 62.9377 82.1006 61.9782C81.7319 61.84 81.416 61.6438 81.1881 61.3163C81.0023 61.0494 80.9236 60.77 81.0946 60.47C81.2656 60.17 81.5138 59.9976 81.8785 60C82.1304 60.0017 82.3476 60.0984 82.5735 60.182C84.497 60.8933 86.4211 61.603 88.3898 62.3295Z" class="fill-fgs2"/>
<path d="M32.3415 51.2221C31.1498 50.7765 30.0052 50.3394 28.8519 49.9261C28.5013 49.8005 28.2779 49.5748 28.1194 49.2573C27.9512 48.9204 27.9446 48.5898 28.204 48.3018C28.4513 48.0273 28.7592 47.9236 29.1278 48.0595C31.0319 48.7616 32.9382 49.4577 34.8402 50.1655C35.005 50.2269 35.1559 50.3441 35.2925 50.4598C35.6861 50.793 35.8535 51.2219 35.6083 51.6928C35.3642 52.1616 34.8959 52.1074 34.4865 51.9806C33.7776 51.7609 33.0849 51.4895 32.3415 51.2221Z" class="fill-fgs2"/>
<path d="M58.3415 59.2221C57.1498 58.7765 56.0052 58.3394 54.8519 57.9261C54.5013 57.8005 54.2779 57.5748 54.1194 57.2573C53.9512 56.9204 53.9446 56.5898 54.204 56.3018C54.4513 56.0273 54.7592 55.9236 55.1278 56.0595C57.0319 56.7616 58.9382 57.4577 60.8402 58.1655C61.005 58.2269 61.1559 58.3441 61.2925 58.4598C61.6861 58.793 61.8535 59.2219 61.6083 59.6928C61.3642 60.1616 60.8959 60.1074 60.4865 59.9806C59.7776 59.7609 59.0849 59.4895 58.3415 59.2221Z" class="fill-fgs2"/>
<path d="M85.3415 68.2221C84.1498 67.7765 83.0052 67.3394 81.8519 66.9261C81.5013 66.8005 81.2779 66.5748 81.1194 66.2573C80.9512 65.9204 80.9446 65.5898 81.204 65.3018C81.4513 65.0273 81.7592 64.9236 82.1278 65.0595C84.0319 65.7616 85.9382 66.4577 87.8402 67.1655C88.005 67.2269 88.1559 67.3441 88.2925 67.4598C88.6861 67.793 88.8535 68.2219 88.6083 68.6928C88.3642 69.1616 87.8959 69.1074 87.4865 68.9806C86.7776 68.7609 86.0849 68.4895 85.3415 68.2221Z" class="fill-fgs2"/>
<path d="M29.47 53.1419C32.3075 54.202 35.0983 55.2458 37.887 56.2955C38.1097 56.3794 38.359 56.4381 38.5078 56.6498C38.7592 57.0073 38.8406 57.3922 38.586 57.777C38.3291 58.1652 37.9513 58.2573 37.5251 58.1008C36.2969 57.6498 35.0725 57.1886 33.8466 56.7313C32.1868 56.1122 30.5282 55.49 28.8666 54.8758C28.4144 54.7086 28.1114 54.4083 28.0139 53.9387C27.944 53.6022 28.1477 53.3643 28.3935 53.1672C28.7249 52.9015 29.0741 52.9986 29.47 53.1419Z" class="fill-fgs2"/>
<path d="M55.47 61.1419C58.3075 62.202 61.0983 63.2458 63.887 64.2955C64.1097 64.3794 64.359 64.4381 64.5078 64.6498C64.7592 65.0073 64.8406 65.3922 64.586 65.777C64.3291 66.1652 63.9513 66.2573 63.5251 66.1008C62.2969 65.6498 61.0725 65.1886 59.8466 64.7313C58.1868 64.1122 56.5282 63.49 54.8666 62.8758C54.4144 62.7086 54.1114 62.4083 54.0139 61.9387C53.944 61.6022 54.1477 61.3643 54.3935 61.1672C54.7249 60.9015 55.0741 60.9986 55.47 61.1419Z" class="fill-fgs2"/>
<path d="M82.47 70.1419C85.3075 71.202 88.0983 72.2458 90.887 73.2955C91.1097 73.3794 91.359 73.4381 91.5078 73.6498C91.7592 74.0073 91.8406 74.3922 91.586 74.777C91.3291 75.1652 90.9513 75.2573 90.5251 75.1008C89.2969 74.6498 88.0725 74.1886 86.8466 73.7313C85.1868 73.1122 83.5282 72.49 81.8666 71.8758C81.4144 71.7086 81.1114 71.4083 81.0139 70.9387C80.944 70.6022 81.1477 70.3643 81.3935 70.1672C81.7249 69.9015 82.0741 69.9986 82.47 70.1419Z" class="fill-fgs2"/>
<path d="M33.8182 59.8339C34.3076 60.0354 34.7637 60.2007 35.1954 60.4151C35.7261 60.6787 35.9636 61.3324 35.706 61.792C35.4133 62.3144 34.9747 62.2486 34.4988 62.0664C32.6573 61.3616 30.811 60.6692 28.9674 59.9698C28.8362 59.92 28.7044 59.8637 28.5859 59.7896C28.1592 59.523 27.8757 58.8048 28.0543 58.4315C28.3498 57.814 28.8462 57.9924 29.303 58.1583C30.7973 58.701 32.2842 59.2641 33.8182 59.8339Z" class="fill-fgs2"/>
<path d="M59.8182 67.8339C60.3076 68.0354 60.7637 68.2007 61.1954 68.4151C61.7261 68.6787 61.9636 69.3324 61.706 69.792C61.4133 70.3144 60.9747 70.2486 60.4988 70.0664C58.6573 69.3616 56.811 68.6692 54.9674 67.9698C54.8362 67.92 54.7044 67.8637 54.5859 67.7896C54.1592 67.523 53.8757 66.8048 54.0543 66.4315C54.3498 65.814 54.8462 65.9924 55.303 66.1583C56.7973 66.701 58.2842 67.2641 59.8182 67.8339Z" class="fill-fgs2"/>
<path d="M86.8182 76.8339C87.3076 77.0354 87.7637 77.2007 88.1954 77.4151C88.7261 77.6787 88.9636 78.3324 88.706 78.792C88.4133 79.3144 87.9747 79.2486 87.4988 79.0664C85.6573 78.3616 83.811 77.6692 81.9674 76.9698C81.8362 76.92 81.7044 76.8637 81.5859 76.7896C81.1592 76.523 80.8757 75.8048 81.0543 75.4315C81.3498 74.814 81.8462 74.9924 82.303 75.1583C83.7973 75.701 85.2842 76.2641 86.8182 76.8339Z" class="fill-fgs2"/>
<path d="M86.2206 26.5033C85.9191 26.3775 85.657 26.275 85.3992 26.1627C85.1859 26.0698 85.0149 25.9243 84.9982 25.6769C84.9801 25.4082 85.1824 25.2533 85.3897 25.1993C86.84 24.8214 87.7175 23.9354 87.965 22.4341C88.0078 22.1743 88.2042 21.9702 88.5245 21.9767C88.8202 21.9827 88.937 22.1887 89.0361 22.4171C89.0761 22.5092 89.1232 22.6017 89.1421 22.6988C89.3957 24.0005 90.1928 24.7764 91.4508 25.1281C91.719 25.2031 92.0264 25.3246 92.0446 25.6527C92.0642 26.0036 91.7162 26.0669 91.477 26.1959C91.3181 26.2817 91.1532 26.3632 90.9818 26.4178C89.9953 26.7322 89.3958 27.3933 89.1648 28.4001C89.1339 28.535 89.0683 28.6647 89.0028 28.7883C88.8977 28.9864 88.7789 29.1784 88.5146 29.1811C88.2502 29.1838 88.1188 29.0009 88.0235 28.797C87.9132 28.5608 87.8083 28.3185 87.7368 28.0686C87.5143 27.2913 87.0259 26.778 86.2206 26.5033Z" class="fill-fgs2"/>
<path d="M32.6378 98.4359C32.7505 98.5548 32.852 98.6428 32.8839 98.7512C33.1804 99.7576 33.8024 100.425 34.8327 100.701C35.0513 100.759 35.2471 100.914 35.2551 101.163C35.2638 101.43 35.0954 101.637 34.8488 101.705C33.8329 101.985 33.1629 102.595 32.8873 103.63C32.8181 103.89 32.6399 104.123 32.3358 104.105C32.0657 104.089 31.9121 103.861 31.8513 103.622C31.6036 102.649 30.8835 102.133 30.0596 101.7C29.8184 101.573 29.5153 101.472 29.5267 101.115C29.538 100.76 29.8329 100.667 30.0914 100.564C30.95 100.224 31.6441 99.7243 31.9438 98.7951C32.0398 98.4974 32.2493 98.3221 32.6378 98.4359Z" class="fill-fgs2"/>
</svg>
