<svg width="131" height="131" viewBox="0 0 131 131" fill="none" xmlns="http://www.w3.org/2000/svg">
<path d="M55 46L85.0125 52.0025" class="stroke-fgs3" stroke-width="2" stroke-linecap="round" stroke-linejoin="round"/>
<path d="M55 56L85.0125 62.0025" class="stroke-fgs3" stroke-width="2" stroke-linecap="round" stroke-linejoin="round"/>
<path d="M55 66L85.0125 72.0025" class="stroke-fgs3" stroke-width="2" stroke-linecap="round" stroke-linejoin="round"/>
<path d="M51.2299 17.3569L38.0957 22.0318C51.4339 24.2681 80.0752 29.1242 87.9343 30.6577C91.669 31.3864 94.3071 33.0097 95.9875 34.71C98.5535 37.3063 98.2375 41.3786 98.2375 45.029V109.729L105.669 106.466C107.123 105.828 108.061 104.391 108.061 102.803V34.9707C107.892 33.1113 107.158 31.401 106.253 29.9671C104.424 27.0684 101.033 25.7887 97.6598 25.1812L53.2801 17.1887C52.5937 17.065 51.8869 17.123 51.2299 17.3569Z" class="fill-bgs2"/>
<path d="M38.0957 34.9707V22.0318M38.0957 22.0318L51.2299 17.3569C51.8869 17.123 52.5937 17.065 53.2801 17.1887L97.6598 25.1812C101.033 25.7887 104.424 27.0684 106.253 29.9671C107.158 31.401 107.892 33.1113 108.061 34.9707V102.803C108.061 104.391 107.123 105.828 105.669 106.466L98.2375 109.729M38.0957 22.0318C51.4339 24.2681 80.0752 29.1242 87.9343 30.6577C91.669 31.3864 94.3071 33.0097 95.9875 34.71C98.5535 37.3063 98.2375 41.3786 98.2375 45.029V109.729M98.2375 109.729L63.7339 105.416" class="stroke-fgs2" stroke-width="2.5" stroke-linecap="round" stroke-linejoin="round"/>
<g filter="url(#filter0_i_7881_2973)">
<path d="M72.3137 40.2959L28.6809 33.2521C25.7017 32.7711 23 35.0716 23 38.0894V102.865C23 105.294 24.7797 107.356 27.1827 107.712L70.8155 114.169C73.7751 114.607 76.4328 112.313 76.4328 109.322V45.1333C76.4328 42.7285 74.6877 40.6792 72.3137 40.2959Z" class="fill-bgs2"/>
</g>
<path d="M72.3137 40.2959L28.6809 33.2521C25.7017 32.7711 23 35.0716 23 38.0894V102.865C23 105.294 24.7797 107.356 27.1827 107.712L70.8155 114.169C73.7751 114.607 76.4328 112.313 76.4328 109.322V45.1333C76.4328 42.7285 74.6877 40.6792 72.3137 40.2959Z" class="stroke-fgs2" stroke-width="2.5" stroke-linecap="round" stroke-linejoin="round"/>
<path d="M32.7998 58.65L62.8123 63.652" class="stroke-fgs2" stroke-width="2" stroke-linecap="round" stroke-linejoin="round"/>
<path d="M32.7998 68.45L62.8123 73.452" class="stroke-fgs2" stroke-width="2" stroke-linecap="round" stroke-linejoin="round"/>
<path d="M32.7998 48.85L62.8123 54.8525" class="stroke-fgs2" stroke-width="2" stroke-linecap="round" stroke-linejoin="round"/>
<path d="M108.061 34.9707C107.678 30.7536 104.597 28.198 103 27L96 33.5C98.5834 36.7293 99.9439 40.7669 99.8416 44.9012L98.2371 109.729L105.669 106.466C107.122 105.828 108.061 104.391 108.061 102.803V34.9707Z" class="fill-fgs2"/>
<path d="M98.2371 109.729L105.669 106.466C107.122 105.828 108.061 104.391 108.061 102.803V34.9707C107.678 30.7536 104.597 28.198 103 27L96 33.5V33.5C98.5834 36.7293 99.9439 40.7669 99.8416 44.9012L98.2371 109.729ZM98.2371 109.729L63.7334 105.416" class="stroke-fgs2" stroke-width="2.5" stroke-linecap="round" stroke-linejoin="round"/>
<rect x="53" y="83" width="40" height="40" rx="20" class="fill-bgs2"/>
<path d="M65 112.982V101.845C65 100.92 65.8302 100.215 66.7436 100.365L68.203 100.605V94.4131C68.203 88.0072 78.6659 89.0749 78.6659 94.4131V102.327L80.6125 102.647C81.3371 102.767 81.8689 103.393 81.8689 104.128V115.089C81.8689 116.007 81.0514 116.71 80.1436 116.572L66.2747 114.465C65.5417 114.354 65 113.723 65 112.982Z" class="fill-bgs2"/>
<path d="M68.203 100.605L66.7436 100.365C65.8302 100.215 65 100.92 65 101.845V112.982C65 113.723 65.5417 114.354 66.2747 114.465L80.1436 116.572C81.0514 116.71 81.8689 116.007 81.8689 115.089V104.128C81.8689 103.393 81.3371 102.767 80.6125 102.647L78.6659 102.327M68.203 100.605V94.4131C68.203 88.0072 78.6659 89.0749 78.6659 94.4131V102.327M68.203 100.605L78.6659 102.327" class="stroke-fgs2" stroke-width="2.5" stroke-linecap="round" stroke-linejoin="round"/>
<mask id="path-15-outside-1_7881_2973" maskUnits="userSpaceOnUse" x="71" y="106" width="4" height="7" fill="black">
<rect fill="white" x="71" y="106" width="4" height="7"/>
<path d="M72.915 107C73.4203 107 73.83 107.412 73.8301 107.92C73.8301 108.256 73.6506 108.548 73.3838 108.709L73.8672 111.297C73.8891 111.415 73.7986 111.524 73.6787 111.524H72.2715C72.1563 111.524 72.0671 111.423 72.0811 111.309L72.3828 108.882L72.4072 108.686C72.1619 108.52 72 108.239 72 107.92C72 107.412 72.4098 107 72.915 107Z"/>
</mask>
<path d="M72.915 107C73.4203 107 73.83 107.412 73.8301 107.92C73.8301 108.256 73.6506 108.548 73.3838 108.709L73.8672 111.297C73.8891 111.415 73.7986 111.524 73.6787 111.524H72.2715C72.1563 111.524 72.0671 111.423 72.0811 111.309L72.3828 108.882L72.4072 108.686C72.1619 108.52 72 108.239 72 107.92C72 107.412 72.4098 107 72.915 107Z" class="fill-fgs2"/>
<path d="M72.915 107V106.354H72.915L72.915 107ZM73.8301 107.92H74.4763V107.92L73.8301 107.92ZM73.3838 108.709L73.0502 108.155L72.6662 108.387L72.7485 108.828L73.3838 108.709ZM73.8672 111.297L74.5026 111.179L74.5025 111.178L73.8672 111.297ZM73.6787 111.524V112.171L73.6803 112.171L73.6787 111.524ZM72.2715 111.524L72.2701 112.171H72.2715V111.524ZM72.0811 111.309L71.4397 111.229L71.4396 111.23L72.0811 111.309ZM72.3828 108.882L71.7415 108.802L71.7415 108.802L72.3828 108.882ZM72.4072 108.686L73.0485 108.765L73.0976 108.371L72.768 108.149L72.4072 108.686ZM72 107.92L71.3537 107.92V107.92H72ZM72.915 107V107.646C73.0602 107.646 73.1838 107.765 73.1838 107.92L73.8301 107.92L74.4763 107.92C74.4763 107.058 73.7803 106.354 72.915 106.354V107ZM73.8301 107.92H73.1838C73.1838 108.019 73.1318 108.106 73.0502 108.155L73.3838 108.709L73.7173 109.263C74.1695 108.99 74.4763 108.492 74.4763 107.92H73.8301ZM73.3838 108.709L72.7485 108.828L73.2319 111.416L73.8672 111.297L74.5025 111.178L74.0191 108.59L73.3838 108.709ZM73.8672 111.297L73.2318 111.415C73.1801 111.137 73.3926 110.879 73.6771 110.878L73.6787 111.524L73.6803 112.171C74.2046 112.169 74.5981 111.693 74.5026 111.179L73.8672 111.297ZM73.6787 111.524V110.878H72.2715V111.524V112.171H73.6787V111.524ZM72.2715 111.524L72.2729 110.878C72.5459 110.879 72.7555 111.117 72.7225 111.387L72.0811 111.309L71.4396 111.23C71.3786 111.728 71.7668 112.17 72.2701 112.171L72.2715 111.524ZM72.0811 111.309L72.7224 111.388L73.0241 108.962L72.3828 108.882L71.7415 108.802L71.4397 111.229L72.0811 111.309ZM72.3828 108.882L73.0241 108.962L73.0485 108.765L72.4072 108.686L71.7659 108.606L71.7415 108.802L72.3828 108.882ZM72.4072 108.686L72.768 108.149C72.694 108.1 72.6463 108.016 72.6463 107.92H72H71.3537C71.3537 108.463 71.6297 108.941 72.0465 109.222L72.4072 108.686ZM72 107.92L72.6463 107.92C72.6463 107.765 72.7698 107.646 72.9151 107.646L72.915 107L72.915 106.354C72.0498 106.354 71.3538 107.058 71.3537 107.92L72 107.92Z" class="fill-fgs2" mask="url(#path-15-outside-1_7881_2973)"/>
<defs>
<filter id="filter0_i_7881_2973" x="19.75" y="31.938" width="57.9326" height="83.5348" filterUnits="userSpaceOnUse" color-interpolation-filters="sRGB">
<feFlood flood-opacity="0" result="BackgroundImageFix"/>
<feBlend mode="normal" in="SourceGraphic" in2="BackgroundImageFix" result="shape"/>
<feColorMatrix in="SourceAlpha" type="matrix" values="0 0 0 0 0 0 0 0 0 0 0 0 0 0 0 0 0 0 127 0" result="hardAlpha"/>
<feOffset dx="-2"/>
<feGaussianBlur stdDeviation="2"/>
<feComposite in2="hardAlpha" operator="arithmetic" k2="-1" k3="1"/>
<feColorMatrix type="matrix" values="0 0 0 0 0 0 0 0 0 0 0 0 0 0 0 0 0 0 0.25 0"/>
<feBlend mode="normal" in2="shape" result="effect1_innerShadow_7881_2973"/>
</filter>
</defs>
</svg>
