<svg width="131" height="131" viewBox="0 0 131 131" fill="none" xmlns="http://www.w3.org/2000/svg">
<rect x="54.8203" y="54.4104" width="27.2075" height="26.0739" class="fill-fgs2"/>
<path d="M65.3004 81.2592L94.2966 110.255C96.7834 112.663 100.117 113.996 103.578 113.968C107.039 113.94 110.35 112.553 112.797 110.105C115.245 107.658 116.632 104.346 116.66 100.885C116.688 97.4245 115.355 94.0911 112.948 91.6043L83.7177 62.3743M65.3004 81.2592L77.7146 66.1891C79.2912 64.2792 81.395 63.0756 83.7227 62.3793M65.3004 81.2592L42.1482 109.375C41.0261 110.743 39.6301 111.861 38.0499 112.656C36.4698 113.452 34.7405 113.908 32.9735 113.995C31.2065 114.082 29.4408 113.798 27.7902 113.161C26.1395 112.524 24.6405 111.549 23.3895 110.298C22.1385 109.047 21.1633 107.548 20.5267 105.898C19.8901 104.247 19.6061 102.481 19.6931 100.714C19.78 98.9473 20.236 97.2181 21.0317 95.6379C21.8273 94.0578 22.945 92.6617 24.3128 91.5396L58.3174 63.5382M83.7227 62.3793C86.4582 61.5636 89.507 61.4443 92.3917 61.683C96.2802 62.0169 100.188 61.3282 103.729 59.6852C107.269 58.0422 110.318 55.502 112.573 52.3167C114.828 49.1314 116.211 45.4118 116.585 41.5269C116.959 37.642 116.31 33.7269 114.703 30.1701L98.4098 46.4687C95.6838 45.8384 93.1895 44.4552 91.2111 42.4768C89.2326 40.4983 87.8495 38.0041 87.2191 35.2781L103.513 18.9845C99.9559 17.3778 96.0409 16.7292 92.156 17.1029C88.2711 17.4766 84.5514 18.8597 81.3662 21.1149C78.1809 23.3701 75.6407 26.4191 73.9977 29.9592C72.3547 33.4994 71.666 37.4076 71.9999 41.2961C72.4525 46.6478 71.6467 52.5564 67.5037 55.9683L66.9964 56.3911M58.3174 63.5382L37.8908 43.1115H30.8829L19.6923 24.4604L27.1527 17L45.8038 28.1906V35.1985L66.9914 56.3861M58.3125 63.5332L66.9914 56.3861L58.3125 63.5332ZM99.8919 97.1996L86.8362 84.1439L99.8919 97.1996ZM32.7083 100.93H32.748V100.97H32.7083V100.93Z" class="fill-fgs2"/>
<path d="M65.3004 81.2592L94.2966 110.255C96.7834 112.663 100.117 113.996 103.578 113.968C107.039 113.94 110.35 112.553 112.797 110.105C115.245 107.658 116.632 104.346 116.66 100.885C116.688 97.4245 115.355 94.0911 112.948 91.6043L83.7177 62.3743M65.3004 81.2592L77.7145 66.1891C79.2912 64.2792 81.395 63.0756 83.7227 62.3793M65.3004 81.2592L42.1482 109.375C41.0261 110.743 39.6301 111.861 38.0499 112.656C36.4698 113.452 34.7405 113.908 32.9735 113.995C31.2065 114.082 29.4408 113.798 27.7902 113.161C26.1395 112.524 24.6405 111.549 23.3895 110.298C22.1385 109.047 21.1633 107.548 20.5267 105.898C19.8901 104.247 19.6061 102.481 19.6931 100.714C19.78 98.9473 20.236 97.2181 21.0317 95.6379C21.8273 94.0578 22.945 92.6617 24.3128 91.5396L58.3174 63.5382M65.3004 81.2592L58.3174 63.5382M83.7227 62.3793C86.4582 61.5636 89.507 61.4443 92.3917 61.683C96.2802 62.0169 100.188 61.3282 103.729 59.6852C107.269 58.0422 110.318 55.502 112.573 52.3167C114.828 49.1314 116.211 45.4118 116.585 41.5269C116.959 37.642 116.31 33.7269 114.703 30.1701L98.4098 46.4687C95.6838 45.8383 93.1895 44.4552 91.2111 42.4768C89.2326 40.4983 87.8495 38.0041 87.2191 35.2781L103.513 18.9845C99.9559 17.3778 96.0409 16.7292 92.156 17.1029C88.2711 17.4766 84.5514 18.8597 81.3662 21.1149C78.1809 23.3701 75.6407 26.4191 73.9977 29.9592C72.3547 33.4994 71.666 37.4076 71.9999 41.2961C72.4525 46.6478 71.6467 52.5564 67.5037 55.9683M83.7227 62.3793L67.5037 55.9683M58.3174 63.5382L37.8908 43.1115H30.8829L19.6923 24.4604L27.1527 17L45.8038 28.1906V35.1985L66.9914 56.3861L58.3125 63.5332L67.5037 55.9683M67.5037 55.9683L66.9964 56.3911M99.8919 97.1996L86.8362 84.1439M32.7083 100.93H32.748V100.97H32.7083V100.93Z" class="stroke-fgs2" stroke-width="2" stroke-linecap="round" stroke-linejoin="round"/>
<rect x="48.1523" y="55.4104" width="27.2075" height="26.0739" class="fill-bgs2"/>
<path d="M59.6227 81.2693L88.6189 110.266C91.1057 112.673 94.4391 114.006 97.9001 113.978C101.361 113.95 104.672 112.563 107.12 110.115C109.567 107.668 110.954 104.357 110.983 100.896C111.011 97.4346 109.677 94.1012 107.27 91.6144L78.04 62.3845M59.6227 81.2693L72.0368 66.1992C73.6135 64.2894 75.7173 63.0858 78.045 62.3894M59.6227 81.2693L36.4705 109.385C35.3484 110.753 33.9523 111.871 32.3722 112.666C30.792 113.462 29.0628 113.918 27.2958 114.005C25.5288 114.092 23.7631 113.808 22.1125 113.171C20.4618 112.535 18.9628 111.559 17.7118 110.308C16.4608 109.057 15.4856 107.558 14.849 105.908C14.2123 104.257 13.9284 102.491 14.0153 100.724C14.1023 98.9574 14.5583 97.2282 15.3539 95.6481C16.1496 94.0679 17.2673 92.6719 18.6351 91.5498L52.6397 63.5483M78.045 62.3894C80.7804 61.5738 83.8293 61.4544 86.714 61.6931C90.6025 62.027 94.5107 61.3383 98.0509 59.6953C101.591 58.0523 104.64 55.5121 106.895 52.3268C109.15 49.1416 110.534 45.4219 110.907 41.537C111.281 37.6521 110.632 33.7371 109.026 30.1803L92.7321 46.4788C90.006 45.8485 87.5118 44.4653 85.5334 42.4869C83.5549 40.5084 82.1718 38.0142 81.5414 35.2882L97.835 18.9946C94.2782 17.3879 90.3631 16.7393 86.4782 17.113C82.5933 17.4867 78.8737 18.8698 75.6884 21.1251C72.5032 23.3803 69.963 26.4292 68.32 29.9694C66.677 33.5095 65.9882 37.4178 66.3221 41.3063C66.7747 46.6579 65.969 52.5665 61.826 55.9784L61.3187 56.4012M52.6397 63.5483L32.213 43.1216H25.2052L14.0146 24.4706L21.475 17.0101L40.1261 28.2008V35.2086L61.3137 56.3962M52.6347 63.5433L61.3137 56.3962L52.6347 63.5433ZM94.2142 97.2098L81.1584 84.154L94.2142 97.2098ZM27.0305 100.94H27.0703V100.98H27.0305V100.94Z" class="fill-bgs2"/>
<path d="M59.6227 81.2693L88.6189 110.266C91.1057 112.673 94.4391 114.006 97.9001 113.978C101.361 113.95 104.672 112.563 107.12 110.115C109.567 107.668 110.954 104.357 110.983 100.896C111.011 97.4346 109.677 94.1012 107.27 91.6144L78.04 62.3845M59.6227 81.2693L72.0368 66.1992C73.6135 64.2894 75.7173 63.0857 78.045 62.3894C80.7805 61.5738 83.8293 61.4544 86.714 61.6931C90.6025 62.027 94.5107 61.3383 98.0509 59.6953C101.591 58.0523 104.64 55.5121 106.895 52.3268C109.15 49.1416 110.534 45.4219 110.907 41.537C111.281 37.6521 110.632 33.7371 109.026 30.1803L92.7321 46.4788C90.006 45.8485 87.5118 44.4653 85.5334 42.4869C83.5549 40.5084 82.1718 38.0142 81.5414 35.2882L97.835 18.9946C94.2782 17.3879 90.3631 16.7393 86.4782 17.113C82.5933 17.4867 78.8737 18.8698 75.6884 21.1251C72.5032 23.3803 69.963 26.4292 68.32 29.9694C66.677 33.5095 65.9882 37.4178 66.3221 41.3063C66.7747 46.6579 65.969 52.5665 61.826 55.9784M59.6227 81.2693L36.4705 109.385C35.3484 110.753 33.9523 111.871 32.3722 112.666C30.792 113.462 29.0628 113.918 27.2958 114.005C25.5288 114.092 23.7631 113.808 22.1125 113.171C20.4618 112.535 18.9628 111.559 17.7118 110.308C16.4608 109.057 15.4856 107.558 14.849 105.908C14.2123 104.257 13.9284 102.491 14.0153 100.724C14.1023 98.9574 14.5583 97.2282 15.3539 95.6481C16.1496 94.0679 17.2673 92.6719 18.6351 91.5498L52.6397 63.5483L32.213 43.1216H25.2052L14.0146 24.4706L21.475 17.0101L40.1261 28.2008V35.2086L61.3137 56.3962L52.6347 63.5433L61.826 55.9784M61.826 55.9784L61.3187 56.4012M94.2142 97.2098L81.1584 84.154M27.0305 100.94H27.0703V100.98H27.0305V100.94Z" class="stroke-fgs2" stroke-width="2.5" stroke-linecap="round" stroke-linejoin="round"/>
</svg>
