<svg width="131" height="131" viewBox="0 0 131 131" fill="none" xmlns="http://www.w3.org/2000/svg">
<path d="M95.7021 33.3378V86.1186C95.7021 87.1684 95.1372 88.142 94.1986 88.612C90.8416 90.2933 86.2836 92.0027 87.0303 89.2647C87.8658 86.2015 83.1792 67.6903 80.4657 57.8312C80.2729 57.1305 79.8219 56.5334 79.2037 56.1512L40.9073 32.4771C40.5853 32.278 40.3055 32.0177 40.0839 31.7108L35.7224 25.6718C35.2817 24.9005 34.6797 23.0004 35.4655 21.1331C35.614 20.7803 35.8786 20.4931 36.182 20.2597L39.3054 17.8571C40.0088 17.316 40.9218 17.128 41.7818 17.3472L93.5255 30.5368C94.806 30.8632 95.7021 32.0164 95.7021 33.3378Z" class="stroke-fgs2" stroke-width="1.89879" stroke-linecap="square"/>
<path d="M95.7021 33.3378V109.479C95.7021 110.529 95.1372 111.503 94.1986 111.973C90.8416 113.654 86.2836 115.364 87.0303 112.626C87.868 109.554 83.1546 69.1588 80.4444 57.8333C80.2752 57.1265 79.8219 56.5334 79.2037 56.1512L40.9073 32.4771C40.5853 32.278 40.3055 32.0177 40.0839 31.7108L35.7224 25.6718C35.2817 24.9005 34.6797 23.0004 35.4655 21.1331C35.614 20.7803 35.8786 20.4931 36.182 20.2597L39.3054 17.8571C40.0088 17.316 40.9218 17.128 41.7818 17.3472L93.5255 30.5368C94.806 30.8632 95.7021 32.0164 95.7021 33.3378Z" class="fill-bgs2 stroke-fgs2" stroke-width="2.5" stroke-linecap="square"/>
<path d="M95.7024 35.2048V109.479C95.7024 110.529 95.1375 111.503 94.1989 111.973C90.8419 113.654 86.2839 115.364 87.0307 112.626C87.8683 109.554 83.1549 69.1587 80.4447 57.8333C80.2755 57.1265 79.8222 56.5333 79.204 56.1512L65.0366 47.3931C65.011 47.3863 64.9858 47.3795 64.961 47.3727C64.6893 47.298 64.5446 47.1862 64.5052 47.0646L54.9267 41.1434C52.1573 39.4314 53.8927 35.1586 57.0715 35.8624L73.5005 39.5C76.8949 40.6731 79.4719 41.7027 81.3658 42.6037C81.879 42.3817 82.3204 42.0139 82.632 41.5408L86.578 35.5499C86.8549 35.1296 87.2367 34.7888 87.6857 34.5613L91.5055 32.6262C93.4283 31.6521 95.7024 33.0493 95.7024 35.2048Z" class="fill-fgs2 stroke-fgs2" stroke-width="2.5" stroke-linecap="square"/>
<path d="M87.1537 114.181L36.8713 101.035C35.7711 100.748 35.0037 99.7537 35.0036 98.6166L35 31.8104V23.8305C35 22.1993 36.5369 21.005 38.1175 21.4079L88.4 34.225C89.5075 34.5073 90.2825 35.5047 90.2825 36.6476V46.2413L90.286 111.762C90.2861 113.4 88.738 114.595 87.1537 114.181Z" class="fill-bgs2 stroke-fgs2" stroke-width="2.5" stroke-linecap="square"/>
<path d="M43.6347 53.539H49.9822M43 56.7127H49.3475M49 51L47.3497 59.2517M45.6503 51L44 59.2517" class="stroke-fgs2" stroke-width="1.2" stroke-linecap="round" stroke-linejoin="round"/>
<path d="M83 46.5026L55 39" class="stroke-fgs2" stroke-width="1.5" stroke-linecap="round"/>
<path d="M81.5 64L55 57" class="stroke-fgs2" stroke-width="1.5" stroke-linecap="round"/>
<path d="M81.5 81L55 74" class="stroke-fgs2" stroke-width="1.5" stroke-linecap="round"/>
<path d="M82 100.5L55 93" class="stroke-fgs2" stroke-width="1.5" stroke-linecap="round"/>
<path d="M43.499 31.915C43.7211 31.9597 43.9433 32.041 44.1943 32.1143H44.1953C46.0452 32.6112 47.841 33.1098 49.6475 33.5674C49.9154 33.6352 50.1194 33.7418 50.2471 33.9131C50.3754 34.0855 50.4139 34.3068 50.3906 34.5742C50.3666 34.8513 50.386 35.1238 50.3838 35.418C50.3829 35.5352 50.3659 35.6603 50.3066 35.7637C50.244 35.873 50.1389 35.9485 49.9873 35.9707C49.8346 35.9931 49.6842 35.9572 49.5713 35.8779C49.4574 35.7979 49.3788 35.6703 49.3877 35.5166C49.404 35.2373 49.3616 35.0352 49.2852 34.8848C49.2092 34.7353 49.0952 34.6288 48.9531 34.5469C48.8094 34.4641 48.6381 34.4076 48.4512 34.3584C48.3581 34.3339 48.2631 34.3109 48.166 34.2881C48.0693 34.2654 47.9704 34.2429 47.874 34.2168C47.8164 34.2012 47.7583 34.1863 47.7002 34.1719C47.5448 34.1333 47.4095 34.1501 47.3174 34.2051C47.2297 34.2575 47.1692 34.3511 47.1689 34.498C47.1656 36.4443 47.1746 38.3935 47.166 40.3408C47.1651 40.5414 47.1836 40.6965 47.2461 40.8125C47.3049 40.9215 47.4109 41.0102 47.6191 41.0596C47.7719 41.0958 47.9167 41.1718 48.0117 41.292C48.1096 41.4159 48.1476 41.5783 48.0967 41.7637C48.0683 41.8669 48.0231 41.9477 47.96 42.0049C47.896 42.0627 47.8213 42.0897 47.7461 42.0977C47.6047 42.1126 47.4439 42.0618 47.3213 42.0273C46.8173 41.8854 46.3031 41.7522 45.7979 41.6006C45.6771 41.5643 45.5411 41.5143 45.4355 41.4268C45.3248 41.3347 45.2504 41.2033 45.2529 41.0215C45.2543 40.9286 45.2737 40.8497 45.3145 40.7861C45.3559 40.7215 45.414 40.6819 45.4756 40.6572C45.5355 40.6333 45.6002 40.623 45.6602 40.6182C45.7195 40.6134 45.7834 40.6129 45.8369 40.6113C45.9475 40.608 45.9938 40.5696 46.0195 40.5254C46.0511 40.471 46.0623 40.3894 46.0625 40.2861C46.0663 38.1983 46.0629 36.1059 46.0674 34.0176L46.0615 33.9365C46.0504 33.8632 46.0238 33.8114 45.9883 33.7725C45.9386 33.7182 45.8615 33.6777 45.7529 33.6484C45.3548 33.5415 44.9558 33.4358 44.5596 33.3311C44.3907 33.2864 44.2262 33.3 44.1113 33.3594C44.0022 33.4158 43.9324 33.5154 43.9385 33.668C43.9411 33.7339 43.9415 33.8053 43.9307 33.877C43.9125 33.9973 43.8789 34.1178 43.8047 34.209C43.7258 34.3059 43.6111 34.3578 43.4609 34.3584C43.3216 34.3589 43.1854 34.3271 43.0811 34.2461C42.9732 34.1623 42.9112 34.0353 42.9072 33.873C42.8948 33.3646 42.8976 32.8551 42.916 32.3467C42.9219 32.1834 42.9821 32.0518 43.0967 31.9736C43.2084 31.8977 43.3526 31.8856 43.499 31.915Z" class="fill-fgs2 stroke-fgs2" stroke-width="0.2"/>
<path d="M44.0206 72.4463L42.0825 69.6775C42.0825 69.6775 41.8969 69.2068 42.0825 69.0419C42.2474 68.8953 42.6474 69.0419 42.6474 69.0419L44.8672 70.497C44.9379 70.5433 45.0332 70.5176 45.071 70.442L46 68.5838C46 68.5838 46.3702 67.7357 47 68.0839C47.1741 68.1801 47.238 68.7287 47.238 68.7287V71.507C47.238 71.5552 47.2626 71.6001 47.3032 71.626L49.7805 73.2087C49.7805 73.2087 50.0482 73.5448 49.9923 73.7737C49.9505 73.9453 49.7098 74.1269 49.7098 74.1269L48.0721 74.5854C48.0002 74.6055 47.9564 74.6781 47.9721 74.751L48.5799 77.5874C48.5799 77.5874 48.4835 77.8652 48.368 77.9406C48.1833 78.0612 47.803 77.8699 47.803 77.8699L45.8832 75.1959C45.8486 75.1477 45.7875 75.1262 45.7303 75.1422L44.0599 75.61C44.0599 75.61 43.5001 75.5655 43.3537 75.3981C43.2154 75.24 43.3537 74.8331 43.3537 74.8331L44.04 72.5682C44.0526 72.5267 44.0454 72.4818 44.0206 72.4463Z" class="fill-fgs2 stroke-fgs2" stroke-width="0.141248"/>
<path d="M43.6586 87.1796L48.1158 88.3952C48.3426 88.4571 48.5 88.6631 48.5 88.8983V91V91.25V93.3173C48.5 93.6611 48.1731 93.9108 47.8414 93.8204L43.3842 92.6048C43.1574 92.5429 43 92.3369 43 92.1017V87.6827C43 87.3389 43.3269 87.0892 43.6586 87.1796Z" class="stroke-fgs2" stroke-width="1.25" stroke-linecap="round" stroke-linejoin="round"/>
<path d="M45.0952 89.586L45.6954 90.855C45.8462 91.1739 46.2634 91.2541 46.5218 91.014L49.765 87.9992" class="stroke-fgs2" stroke-width="1.25" stroke-linecap="round" stroke-linejoin="round"/>
</svg>
